<?xml version="1.0" encoding="UTF-8" standalone="no"?>
<!-- Created with Inkscape (http://www.inkscape.org/) -->

<svg
   width="197.38629"
   height="280.67694"
   viewBox="0 0 52.225122 74.26244"
   version="1.1"
   id="svg1"
   xml:space="preserve"
   sodipodi:docname="oak-tree-half-M.svg"
   xmlns:inkscape="http://www.inkscape.org/namespaces/inkscape"
   xmlns:sodipodi="http://sodipodi.sourceforge.net/DTD/sodipodi-0.dtd"
   xmlns="http://www.w3.org/2000/svg"
   xmlns:svg="http://www.w3.org/2000/svg"><sodipodi:namedview
     id="namedview1"
     pagecolor="#ffffff"
     bordercolor="#000000"
     borderopacity="0.25"
     inkscape:showpageshadow="2"
     inkscape:pageopacity="0.0"
     inkscape:pagecheckerboard="0"
     inkscape:deskcolor="#d1d1d1"><inkscape:page
       x="0"
       y="0"
       width="52.225121"
       height="74.262444"
       id="page2"
       margin="0"
       bleed="0" /></sodipodi:namedview><defs
     id="defs1" /><g
     id="layer1"
     transform="translate(-143.82783,-85.474554)"><path
       style="fill:#1f1f1f"
       d="m 164.61497,159.4601 c 0.95233,-0.23076 6.74001,-0.82618 12.81431,-1.3183 3.64545,-0.29535 3.87732,-0.36149 5.72094,-1.63197 1.88675,-1.3002 2.02222,-1.81487 1.65454,-6.28555 -0.39492,-4.80173 -0.68815,-6.40471 -1.24866,-6.82584 -0.58531,-0.43976 -2.47432,-0.4219 -3.08515,0.0292 -0.47435,0.3503 -0.47394,0.37406 0.0154,0.89016 0.27654,0.29165 0.76806,0.66966 1.09226,0.84004 0.66418,0.34902 0.7849,0.82032 0.21012,0.82032 -0.30569,0 -0.3274,0.15048 -0.11183,0.77499 0.19244,0.55752 0.17907,0.94189 -0.0477,1.36972 -0.31489,0.59421 -0.3159,0.59388 -1.17236,-0.37812 -0.47146,-0.53507 -0.98528,-0.97284 -1.14184,-0.97284 -0.15655,0 -0.26735,-0.20836 -0.24621,-0.46302 0.0211,-0.25467 0.0162,-0.76068 -0.0111,-1.12448 -0.0474,-0.63316 -0.0625,-0.63882 -0.35317,-0.1323 -0.16703,0.29105 -0.27161,0.57392 -0.23239,0.62862 0.17361,0.24213 -1.4825,1.08786 -2.13336,1.08943 -0.48635,0.001 -0.72046,0.13991 -0.72046,0.42693 0,0.27389 -0.14336,0.36962 -0.4029,0.26904 -0.22925,-0.0888 -0.46716,0.013 -0.552,0.23628 -0.19494,0.51304 -1.141,0.50934 -1.141,-0.004 0,-0.21828 -0.14737,-0.40084 -0.32748,-0.40568 -0.18012,-0.005 -0.0619,-0.23251 0.26259,-0.50593 0.62186,-0.5239 0.57355,-1.18514 -0.10582,-1.44842 -0.21571,-0.0836 -0.5687,0.0263 -0.78442,0.24412 -0.21573,0.21786 -0.60133,0.39612 -0.85689,0.39612 -0.69296,0 -1.33182,0.85919 -1.33182,1.79115 0,0.4529 -0.11982,0.89823 -0.26626,0.98964 -0.14645,0.0914 -0.20347,0.2688 -0.12672,0.39421 0.1668,0.27256 -0.0298,0.40002 -0.96464,0.6254 -0.55739,0.13438 -0.73706,0.0599 -0.86911,-0.3603 -0.0916,-0.29133 -0.29289,-0.52969 -0.44742,-0.52969 -0.15452,0 -0.42606,-0.20042 -0.60342,-0.44538 -0.28877,-0.39884 -0.38761,-0.34389 -0.94583,0.52589 -0.70014,1.0909 -1.01635,1.23048 -1.01635,0.44866 0,-0.29104 -0.16864,-0.52917 -0.37476,-0.52917 -0.20611,0 -0.41243,-0.26667 -0.45847,-0.59261 -0.0461,-0.32593 -0.29004,-0.63232 -0.5422,-0.68086 -0.35615,-0.0686 -0.45848,0.0932 -0.45848,0.72491 0,0.92548 -0.64106,1.13671 -0.86187,0.28398 -0.13904,-0.53695 -0.71005,-0.74972 -0.71005,-0.26458 0,0.14552 -0.17684,0.26458 -0.39298,0.26458 -0.23585,0 -0.39298,-0.24427 -0.39298,-0.61089 0,-0.33599 -0.15939,-0.83103 -0.3542,-1.10009 -0.33455,-0.46205 -0.36366,-0.45115 -0.52459,0.19638 -0.13843,0.55704 -0.29307,0.66312 -0.82474,0.56575 -0.4422,-0.081 -0.65436,2e-5 -0.65436,0.24982 0,0.20331 -0.16983,0.512 -0.3774,0.68598 -0.20758,0.17398 -0.31117,0.49065 -0.23022,0.70371 0.081,0.21306 -0.0734,0.63847 -0.34305,0.94535 -0.35398,0.40287 -0.39923,0.59012 -0.16277,0.67365 0.57197,0.20205 0.35423,0.72421 -0.45235,1.08477 -0.74442,0.33278 -1.45649,0.22408 -1.20663,-0.1842 0.0649,-0.10603 0.0276,-0.34054 -0.083,-0.52114 -0.15316,-0.25026 -0.38141,-0.25905 -0.95984,-0.037 -0.87947,0.33769 -1.15293,0.69162 -1.15852,1.49944 -0.005,0.78729 -0.52846,1.06313 -0.70717,0.37297 -0.0791,-0.30569 -0.30701,-0.55579 -0.50634,-0.55579 -0.19933,0 -0.36243,-0.17859 -0.36243,-0.39688 0,-0.21828 -0.16346,-0.39687 -0.36324,-0.39687 -0.49931,0 -0.70299,-1.5238 -0.22827,-1.70777 0.19951,-0.0773 0.29087,-0.25802 0.20302,-0.40156 -0.0878,-0.14354 -0.0126,-0.53134 0.16729,-0.86176 0.39214,-0.72046 0.50075,-1.25206 0.26352,-1.28985 -0.92431,-0.14723 -2.13821,-0.10738 -2.13821,0.0702 0,0.12209 0.17684,0.22199 0.39298,0.22199 0.21614,0 0.39298,0.11906 0.39298,0.26458 0,0.14552 -0.29104,0.26459 -0.64675,0.26459 -0.42633,0 -0.60175,0.1184 -0.51473,0.34742 0.0726,0.19108 -0.091,0.55127 -0.36364,0.80042 -0.44016,0.40229 -0.53247,0.4082 -0.82451,0.0528 -0.18088,-0.2201 -0.25747,-0.58808 -0.17021,-0.81773 0.16219,-0.42684 0.16307,-0.42685 -1.34447,0.0108 -0.63643,0.18474 -0.77421,-0.10131 -0.28619,-0.59417 0.22971,-0.23199 0.22128,-0.40606 -0.0348,-0.71764 -0.28515,-0.347 -0.22277,-0.51925 0.39874,-1.10095 l 0.73679,-0.6896 -0.58876,-0.31821 c -0.54173,-0.2928 -0.5539,-0.34742 -0.15242,-0.68393 0.30779,-0.25797 0.39582,-0.61782 0.29882,-1.22149 -0.1823,-1.13451 0.26742,-1.47411 2.03828,-1.53921 1.57847,-0.058 2.10663,-0.36507 2.35633,-1.36982 0.12062,-0.48535 0.0271,-0.79924 -0.3318,-1.11363 -0.37809,-0.33118 -0.44554,-0.58582 -0.27704,-1.04579 0.19503,-0.53241 0.33998,-0.58581 1.16558,-0.42939 0.88234,0.16717 0.93723,0.13827 0.85525,-0.45031 -0.0687,-0.4933 0.0254,-0.6189 0.43636,-0.58236 0.4721,0.042 0.48113,0.0148 0.0912,-0.27475 -0.64115,-0.47609 -0.34123,-1.67155 0.45808,-1.82586 0.34596,-0.0668 0.83514,0.0308 1.08706,0.21681 0.31858,0.23526 0.55695,0.25535 0.78287,0.066 0.78366,-0.65683 2.30884,0.59461 1.59872,1.31178 -0.2759,0.27863 0.24301,1.65006 0.62433,1.65006 0.12947,0 0.16254,0.11906 0.0735,0.26458 -0.089,0.14552 0.0219,0.26458 0.24653,0.26458 0.22964,0 0.40844,-0.22481 0.40844,-0.51355 0,-0.28245 0.11834,-0.58741 0.26298,-0.67769 0.14554,-0.0908 -0.0888,-0.46307 -0.52468,-0.83348 -0.43321,-0.36814 -0.71824,-0.78277 -0.6334,-0.9214 0.0848,-0.13863 0.0365,-0.39567 -0.10744,-0.5712 -0.15664,-0.19102 -0.18118,-0.76303 -0.0611,-1.42488 0.11031,-0.60816 0.10183,-1.263 -0.0188,-1.45521 -0.16975,-0.27036 -0.22032,-0.25164 -0.22342,0.0827 -0.002,0.23769 -0.26413,0.50086 -0.58204,0.58482 -0.31792,0.084 -0.49891,0.23256 -0.4022,0.33023 0.0967,0.0977 0.0701,0.37708 -0.0591,0.62092 -0.17198,0.32454 -0.48489,0.41389 -1.16762,0.33339 -0.51298,-0.0605 -0.87713,-0.20074 -0.80923,-0.31169 0.0679,-0.11096 -0.10988,-0.47345 -0.39508,-0.80554 -0.28519,-0.33209 -0.51853,-0.70986 -0.51853,-0.8395 0,-0.12963 -0.20632,-0.20071 -0.45848,-0.15795 -0.30948,0.0525 -0.45848,-0.0942 -0.45848,-0.45142 0,-0.4181 0.21832,-0.55694 1.04015,-0.66146 l 1.04015,-0.13229 -0.71267,-0.32506 c -0.39196,-0.17878 -0.71266,-0.44667 -0.71266,-0.59531 0,-0.14864 -0.16702,-0.27026 -0.37115,-0.27026 -0.20413,0 -0.42452,-0.14883 -0.48975,-0.33073 -0.0949,-0.26458 -0.22952,-0.26458 -0.67324,0 -0.30506,0.1819 -0.6152,0.33073 -0.6892,0.33073 -0.074,0 -0.13635,-0.14883 -0.13856,-0.33073 -0.009,-0.77172 -0.4982,-1.09694 -1.55423,-1.03401 -0.81099,0.0483 -1.11185,-0.0471 -1.24381,-0.39437 -0.0991,-0.26088 -0.041,-0.50292 0.13505,-0.56218 0.51301,-0.17269 0.34672,-0.54951 -0.18101,-0.41014 -0.35986,0.095 -0.53479,-0.0503 -0.65818,-0.54679 -0.15352,-0.61773 -0.22606,-0.64954 -0.83857,-0.36769 -0.7243,0.33328 -1.14466,0.009 -1.15295,-0.88947 -0.002,-0.25102 -0.30698,-0.51113 -0.72186,-0.61629 -0.39481,-0.10007 -0.80147,-0.31862 -0.9037,-0.48566 -0.21877,-0.35749 0.49846,-1.24184 1.00718,-1.24184 0.43107,0 0.43949,-0.13088 0.049,-0.76229 -0.16683,-0.26979 -0.22671,-0.69218 -0.13306,-0.93864 0.1593,-0.41926 0.22042,-0.4182 0.9489,0.0164 0.42825,0.25548 0.82813,0.64972 0.88863,0.87609 0.0605,0.22637 0.12368,0.10797 0.1404,-0.26311 0.0376,-0.83457 -0.40469,-1.30969 -1.21917,-1.30969 -0.86266,0 -0.72614,-1.15157 0.15141,-1.27719 0.48768,-0.0698 0.5454,-0.1588 0.29817,-0.45965 -0.17609,-0.21428 -0.22122,-0.5716 -0.10602,-0.83947 0.11031,-0.25652 0.17504,-0.67475 0.14383,-0.92941 -0.0328,-0.26791 0.11582,-0.46303 0.35272,-0.46303 0.44637,0 0.56953,-0.92718 0.15734,-1.18445 -0.15755,-0.0983 -0.13765,-0.42671 0.0531,-0.87552 0.4164,-0.97997 0.39869,-0.9675 0.84436,-0.59396 0.59538,0.49902 1.23193,0.14223 1.05028,-0.58869 -0.12818,-0.51575 -0.0416,-0.61757 0.56836,-0.66855 0.89493,-0.0748 1.28148,-0.62318 0.67153,-0.95269 -0.24562,-0.13269 -0.47884,-0.26619 -0.51826,-0.29666 -0.0394,-0.0305 0.003,-0.25104 0.0935,-0.49015 0.0956,-0.25151 0.45704,-0.43477 0.85762,-0.4348 0.62562,-5e-5 0.69216,-0.0955 0.68949,-0.98914 -0.002,-0.71516 -0.12508,-1.01283 -0.44396,-1.07485 -0.48747,-0.0948 -0.38398,-0.67767 0.25367,-1.42864 0.3496,-0.41174 0.43529,-0.41478 1.00812,-0.0357 0.40678,0.26917 0.62605,0.30803 0.62605,0.11095 0,-0.16682 -0.17684,-0.37185 -0.39298,-0.45561 -0.50975,-0.19755 -0.50808,-1.05279 0.002,-1.25064 0.21747,-0.0843 0.38035,-0.24584 0.36195,-0.35903 -0.105,-0.64592 0.10999,-1.03581 0.73202,-1.32751 0.38464,-0.18037 0.71755,-0.29944 0.7398,-0.26458 0.80105,1.2546 0.78494,1.24593 1.55978,0.83996 0.66729,-0.34963 0.79345,-0.34416 1.22823,0.0532 0.39121,0.35755 0.48454,0.36983 0.48454,0.0638 0,-0.5584 1.0234,-1.34589 1.80245,-1.38697 0.64445,-0.034 2.65133,-1.83685 2.65133,-2.38182 0,-0.12775 0.1612,-0.0972 0.35822,0.068 0.44264,0.371 0.79453,-0.0114 1.06869,-1.161493 l 0.18922,-0.79375 0.4771,0.593731 c 0.26454,0.329205 0.86749,0.64494 1.35333,0.70867 0.48193,0.06322 1.08254,0.19573 1.33471,0.294472 0.26759,0.10479 0.45847,0.0576 0.45847,-0.113357 0,-0.16109 0.20632,-0.29711 0.45848,-0.302267 0.36738,-0.0075 0.33972,-0.07596 -0.13921,-0.344479 -0.32873,-0.184307 -0.51539,-0.418213 -0.41481,-0.519791 0.10058,-0.101578 0.065,-0.184688 -0.0791,-0.184688 -0.1441,0 -0.35068,0.0893 -0.45907,0.198438 -0.1084,0.109141 -0.59858,0.198437 -1.08929,0.198437 -0.78917,0 -0.9384,-0.116591 -1.2923,-1.009628 -0.44205,-1.115511 -0.34227,-1.503913 0.38638,-1.503913 0.33776,0 0.44658,-0.144439 0.36019,-0.478079 -0.0883,-0.340879 0.14056,-0.621852 0.79735,-0.979061 0.88991,-0.483999 0.93892,-0.484724 1.44588,-0.02139 0.5113,0.467307 0.52917,0.461779 0.69757,-0.21581 0.095,-0.382472 0.11165,-0.931617 0.0369,-1.220324 -0.1549,-0.598205 -0.0822,-0.629563 0.60231,-0.259622 0.5688,0.30743 0.69775,0.162355 0.82378,-0.926758 0.11729,-1.013671 0.50747,-1.491567 0.93183,-1.141313 0.39252,0.323977 0.86293,0.0565 0.86293,-0.490655 0,-0.225563 0.26186,-0.684883 0.58192,-1.020712 0.44625,-0.46825 0.69228,-0.550942 1.05536,-0.354706 0.35319,0.190894 0.64933,0.116172 1.16588,-0.294178 0.4745,-0.376938 0.77727,-0.464405 0.96194,-0.277899 0.14823,0.149695 0.51119,0.272617 0.80658,0.273161 0.29539,5.44e-4 0.92308,0.238669 1.39486,0.529166 1.07816,0.663864 1.10712,0.661225 1.10712,-0.100883 0,-0.766042 0.63994,-1.411095 0.92988,-0.93731 0.13632,0.222761 0.25887,0.188163 0.43049,-0.121539 0.13195,-0.238121 0.17073,-0.545996 0.0862,-0.684167 -0.0846,-0.138171 0.22623,-0.449659 0.69064,-0.692196 0.81316,-0.424665 0.86111,-0.420119 1.29652,0.122917 0.3842,0.47917 0.56041,0.522315 1.17284,0.287162 0.54479,-0.209182 0.773,-0.193498 0.93493,0.06425 0.28537,0.454241 0.27535,0.673476 -0.0397,0.870149 -0.14409,0.08994 -0.26199,0.34577 -0.26199,0.568517 0,0.222747 -0.2567,0.614918 -0.57044,0.871491 -0.57006,0.466183 -0.56989,0.466413 0.26439,0.342754 0.99864,-0.148022 1.61599,0.297313 1.61599,1.165724 0,0.420293 0.22128,0.736554 0.65497,0.936115 0.36023,0.165759 0.66325,0.490628 0.67338,0.721931 0.0135,0.308796 0.076,0.279933 0.23524,-0.108615 0.14588,-0.35602 0.097,-0.625284 -0.14941,-0.822918 -0.20143,-0.161564 -0.36623,-0.429454 -0.36623,-0.595313 0,-0.165858 -0.1179,-0.301561 -0.26199,-0.301561 -0.40538,0 -0.30989,-1.585541 0.10518,-1.746398 0.20194,-0.07826 0.43387,-0.399891 0.51539,-0.714737 0.11205,-0.432733 0.22206,-0.497888 0.45072,-0.266956 0.37248,0.376168 1.02461,0.157907 1.02461,-0.342924 0,-0.494552 0.76315,-0.471889 0.95321,0.02831 0.22213,0.584613 0.48554,0.486848 0.89109,-0.330729 0.64755,-1.305458 0.7864,-1.415923 1.22412,-0.973863 0.35403,0.35754 0.45923,0.314606 0.98179,-0.400699 0.32189,-0.44063 0.66869,-0.716896 0.77065,-0.613923 0.10196,0.102972 0.28107,0.03087 0.39802,-0.160231 0.17038,-0.278412 0.31533,-0.282678 0.72949,-0.02147 0.36052,0.227382 0.65893,0.245687 0.98656,0.06052 0.31823,-0.179855 0.71204,-0.173085 1.22117,0.02099 l 0.75146,0.286457 v 12.657608 c 0,8.356195 -0.0889,12.602135 -0.26152,12.494375 -0.3721,-0.23225 -1.17277,0.39767 -2.49713,1.96457 -1.21294,1.43508 -1.29224,2.13618 -0.24163,2.13618 0.33631,0 0.68434,0.11906 0.77339,0.26458 0.27975,0.45714 0.99083,0.31147 0.80947,-0.16582 -0.09,-0.23673 -0.0292,-0.59392 0.13505,-0.79375 0.16422,-0.19984 0.20267,-0.36334 0.0854,-0.36334 -0.26349,0 0.72629,-0.77367 1.0047,-0.78534 0.11041,-0.005 0.19348,3.7549 0.18459,8.35451 l -0.0161,8.36292 -0.66199,-0.1278 c -0.51782,-0.1 -0.71352,0.009 -0.89857,0.50062 -0.13012,0.34563 -0.36435,0.62842 -0.52052,0.62842 -0.15616,0 -0.21107,0.11906 -0.12201,0.26458 0.0891,0.14552 0.44005,0.26459 0.77999,0.26459 1.00743,0 1.4469,0.28317 1.4469,0.9323 0,0.77636 -0.29111,0.86891 -2.24909,0.71504 -1.62534,-0.12772 -2.73047,0.20032 -2.72665,0.80936 10e-4,0.17678 0.47619,0.5949 1.05573,0.92916 l 1.05371,0.60773 0.72866,-0.524 c 0.40077,-0.28819 1.04569,-0.60435 1.43315,-0.70256 0.64714,-0.16403 0.70449,-0.11409 0.70449,0.61344 0,0.5454 -0.197,0.92236 -0.63268,1.21066 -0.72519,0.47987 -0.65799,1.33672 0.14453,1.84287 0.4062,0.25619 0.48305,0.6192 0.45776,2.16245 -0.0167,1.02003 -0.0843,1.64623 -0.15021,1.39157 -0.14811,-0.57241 -0.60829,-0.59133 -1.27576,-0.0525 -0.49785,0.40194 -0.49687,0.40736 0.0464,0.25782 0.40636,-0.11185 0.67384,0.0305 0.99896,0.5316 0.24421,0.3764 0.38694,0.82593 0.31719,0.99895 -0.0936,0.23223 -0.13223,0.228 -0.1475,-0.0161 -0.0114,-0.1819 -0.19939,-0.33073 -0.41782,-0.33073 -0.27992,0 -0.37947,0.23429 -0.33726,0.79375 0.0653,0.86547 0.20205,0.96096 0.682,0.47625 0.21033,-0.21241 0.31439,-0.22178 0.31439,-0.0283 0,0.15906 -0.17684,0.35773 -0.39298,0.44149 -0.21614,0.0838 -0.39298,0.33089 -0.39298,0.54917 0,0.24408 0.1513,0.33824 0.39298,0.24458 0.31836,-0.12338 0.38721,0.0917 0.36259,1.13278 -0.0167,0.7068 -0.0843,1.07672 -0.15021,0.82206 -0.14419,-0.55722 -0.75977,-0.6089 -1.05082,-0.0882 -0.17438,0.31194 -0.314,0.28912 -0.83265,-0.13609 -0.51077,-0.41876 -0.59642,-0.6772 -0.47495,-1.43313 0.0815,-0.50724 0.0515,-0.92225 -0.0668,-0.92225 -0.39704,0 -0.48788,-1.0356 -0.11803,-1.34558 0.20126,-0.16869 0.36331,-0.44096 0.36011,-0.60504 -0.003,-0.16409 -0.20952,-0.0453 -0.45848,0.2639 -0.24896,0.30923 -0.75587,0.75551 -1.12646,0.99174 -0.37059,0.23623 -0.93318,0.954 -1.25019,1.59505 -0.60922,1.23192 -0.60337,1.35473 0.22192,4.65618 0.16369,0.65485 0.34022,2.00264 0.39227,2.99509 0.0521,0.99245 0.2678,2.07135 0.47944,2.39756 0.41715,0.64297 1.97322,1.22194 3.28414,1.22194 0.81062,0 0.82107,0.0168 0.82107,1.32291 v 1.32292 l -16.17771,-0.0271 c -9.34375,-0.0157 -15.79036,-0.12095 -15.26075,-0.24928 z m 1.92865,-12.55593 c -0.0829,-0.21828 -0.25608,-0.39688 -0.38476,-0.39688 -0.12867,0 -0.23395,0.1786 -0.23395,0.39688 0,0.21828 0.17314,0.39687 0.38475,0.39687 0.23438,0 0.32582,-0.15512 0.23396,-0.39687 z m 8.41984,-0.39688 c 0.0891,-0.14552 0.0371,-0.26458 -0.11553,-0.26458 -0.1526,0 -0.27745,0.11906 -0.27745,0.26458 0,0.14552 0.052,0.26459 0.11553,0.26459 0.0635,0 0.1884,-0.11907 0.27745,-0.26459 z m -5.10875,-0.52916 c 0,-0.29105 -0.11789,-0.52917 -0.26198,-0.52917 -0.1441,0 -0.26199,0.23812 -0.26199,0.52917 0,0.29104 0.11789,0.52916 0.26199,0.52916 0.14409,0 0.26198,-0.23812 0.26198,-0.52916 z m 0.90313,-0.28718 c -0.0844,-0.13784 -0.26504,-0.18092 -0.40153,-0.0957 -0.13649,0.0852 -0.17914,0.26767 -0.0948,0.4055 0.0844,0.13784 0.26504,0.18092 0.40153,0.0957 0.13649,-0.0852 0.17914,-0.26767 0.0948,-0.4055 z m 10.12016,-0.0973 c 0.35151,0.21939 0.29715,-0.24788 -0.0722,-0.62092 -0.48022,-0.48498 -0.73356,-0.38142 -0.73356,0.29986 0,0.74447 0.3584,1.18939 0.4783,0.59376 0.0469,-0.23312 0.1943,-0.35583 0.32749,-0.2727 z m -3.41029,-0.57462 c 0.17384,-0.47561 0.10776,-0.56224 -0.42891,-0.56224 -0.49847,0 -0.63441,0.1388 -0.63441,0.64779 0,0.80685 0.75948,0.74575 1.06332,-0.0855 z m -5.38611,0.16537 c 0.089,-0.14552 0.0371,-0.26459 -0.11553,-0.26459 -0.1526,0 -0.27745,0.11907 -0.27745,0.26459 0,0.14552 0.052,0.26458 0.11553,0.26458 0.0635,0 0.1884,-0.11906 0.27745,-0.26458 z m -10.39836,-0.46302 c -0.10635,-0.5577 -0.57131,-0.52254 -0.6898,0.0522 -0.0494,0.2397 0.095,0.41085 0.34669,0.41085 0.26984,0 0.39833,-0.17341 0.34311,-0.46302 z m 13.93519,0.19843 c 0,-0.14552 -0.17684,-0.26458 -0.39298,-0.26458 -0.21614,0 -0.39298,0.11906 -0.39298,0.26458 0,0.14552 0.17684,0.26459 0.39298,0.26459 0.21614,0 0.39298,-0.11907 0.39298,-0.26459 z m -25.93673,-0.2646 c 0,-0.14552 -0.052,-0.26458 -0.11553,-0.26458 -0.0635,0 -0.1884,0.11906 -0.27745,0.26458 -0.0891,0.14552 -0.0371,0.26458 0.11553,0.26458 0.1526,0 0.27745,-0.11906 0.27745,-0.26458 z m 2.90151,-0.0728 c -0.0324,-0.31636 -0.39175,-0.25509 -0.50433,0.086 -0.0576,0.17462 0.0367,0.26987 0.20959,0.21167 0.17291,-0.0582 0.30555,-0.19216 0.29474,-0.29766 z m -3.31817,-0.41772 c 0.076,-0.12424 -0.1528,-0.35981 -0.50851,-0.52349 -0.71485,-0.32894 -0.81633,-0.21654 -0.31927,0.35361 0.37997,0.43585 0.63321,0.48782 0.82778,0.16988 z m 12.99204,-0.81665 c 0,-0.1057 -0.0776,-0.27052 -0.17238,-0.36627 -0.23118,-0.23347 -0.90671,0.35012 -0.7333,0.63349 0.1538,0.25131 0.90568,0.0295 0.90568,-0.26722 z m 8.90757,0.2488 c 0,-0.33151 -0.27803,-0.33151 -0.78596,0 -0.31778,0.2074 -0.28018,0.25725 0.19649,0.26053 0.32421,0.002 0.58947,-0.11501 0.58947,-0.26053 z m -21.48295,-0.52913 c 0,-0.14552 -0.12485,-0.26458 -0.27745,-0.26458 -0.15259,0 -0.20458,0.11906 -0.11553,0.26458 0.089,0.14552 0.21391,0.26458 0.27745,0.26458 0.0635,0 0.11553,-0.11906 0.11553,-0.26458 z m 14.7751,-0.15617 c 0.19884,-0.52332 -0.0163,-0.90216 -0.51226,-0.90216 -0.40814,0 -0.468,0.24776 -0.2185,0.9044 0.20374,0.53618 0.52655,0.53519 0.73076,-0.002 z m 5.39791,-0.22509 c 0,-0.0642 -0.11789,-0.19026 -0.26198,-0.2802 -0.1441,-0.0899 -0.26199,-0.0374 -0.26199,0.11668 0,0.15411 0.11789,0.2802 0.26199,0.2802 0.14409,0 0.26198,-0.0525 0.26198,-0.11668 z m 6.92893,-0.0469 c 0.36769,-0.14249 0.37254,-0.20219 0.0376,-0.46302 -0.33204,-0.25858 -0.33545,-0.44022 -0.0251,-1.33132 0.41487,-1.19101 0.75339,-1.47234 1.53661,-1.27705 0.49902,0.12443 0.48,0.0628 -0.17349,-0.5616 -0.87094,-0.83222 -1.37244,-0.93356 -0.98297,-0.19862 0.3162,0.59669 -0.0737,0.8202 -1.43082,0.8202 -0.7885,0 -0.87591,0.0743 -0.85749,0.72887 0.0113,0.40088 -0.0691,1.01421 -0.17875,1.36294 -0.15341,0.48817 -0.11443,0.60119 0.16943,0.49119 0.20278,-0.0786 0.5926,0.0225 0.86627,0.22455 0.57887,0.42748 0.50106,0.41221 1.03866,0.20386 z m 5.14613,-0.63016 c 0.13353,0 0.0993,-0.23208 -0.0761,-0.51572 -0.23682,-0.38296 -0.40599,-0.44273 -0.65719,-0.23218 -0.49071,0.41129 -0.43253,1.10562 0.0761,0.9085 0.22793,-0.0883 0.52366,-0.1606 0.65719,-0.1606 z m -15.24901,-0.50478 c 0.29097,-0.1861 0.25518,-0.2903 -0.18059,-0.52583 -0.57275,-0.30957 -1.0118,0.002 -0.70626,0.50144 0.19732,0.32244 0.41164,0.32833 0.88685,0.0244 z m 13.86591,-1.80443 c -0.35945,-0.43741 -0.36612,-0.42733 -0.56199,0.85063 l -0.16169,1.05496 0.50541,-0.77809 c 0.37643,-0.57951 0.43214,-0.86726 0.21827,-1.1275 z m 12.01106,1.05244 c 0.62481,-1.01889 1.13203,-1.38907 1.90331,-1.38907 h 0.66536 l -0.84551,-0.85388 c -0.67073,-0.67738 -1.06203,-0.85388 -1.89304,-0.85388 -1.34911,0 -2.00476,0.66824 -2.23566,2.2786 -0.15242,1.06303 -0.11013,1.24961 0.3079,1.35837 1.15803,0.30129 1.66108,0.17175 2.09764,-0.54014 z m -36.32635,-0.33904 c 0,-0.15009 -0.17684,-0.34142 -0.39298,-0.42518 -0.21614,-0.0838 -0.39298,-0.31815 -0.39298,-0.52086 0,-0.20271 -0.10765,-0.36857 -0.23923,-0.36857 -0.13158,0 -0.10573,0.35719 0.0574,0.79375 0.279,0.74648 0.96775,1.11718 0.96775,0.52086 z m 29.88376,-0.79475 c 0.38268,-0.20684 0.50675,-0.55782 0.50675,-1.43357 0,-1.56097 -0.20338,-1.99671 -0.93197,-1.99671 -0.33765,0 -0.71066,-0.17458 -0.8289,-0.38795 -0.37346,-0.67396 -1.38298,-0.19869 -1.38298,0.65108 0,1.0472 0.65951,2.49466 1.36183,2.98889 0.73904,0.52007 0.66262,0.50939 1.27527,0.17826 z m -22.41713,-1.04903 c -0.12675,-0.20712 -0.27746,-0.22249 -0.45212,-0.0461 -0.14409,0.14552 -0.17642,0.40439 -0.0719,0.57527 0.12676,0.20713 0.27747,0.2225 0.45212,0.0461 0.1441,-0.14552 0.17643,-0.4044 0.0719,-0.57528 z m 14.96056,-0.72209 c -0.26631,-0.26895 -0.48605,0.13597 -0.26754,0.49302 0.16506,0.26972 0.22677,0.26993 0.31551,0.001 0.0607,-0.18383 0.0391,-0.40617 -0.048,-0.49409 z m -9.65547,-0.73258 c -0.0792,-1.12145 -0.63118,-1.21491 -1.34386,-0.22755 -0.55259,0.76556 -0.28439,1.14141 0.81988,1.14901 0.51187,0.004 0.58073,-0.11759 0.52398,-0.92146 z m 6.57607,0.24878 c 0.0504,-0.045 0.0155,-0.20636 -0.0776,-0.35859 -0.18526,-0.30272 -1.19303,0.19365 -1.19303,0.58762 0,0.18801 1.0065,0.007 1.27067,-0.22903 z m -15.41798,-1.05868 c 0,-0.48498 -0.37056,-0.48988 -0.76482,-0.0101 -0.23427,0.28507 -0.22652,0.39951 0.0334,0.49346 0.4536,0.16394 0.7314,-0.0196 0.7314,-0.48335 z m -1.11891,-1.33486 c -0.0871,-0.0879 -0.31302,-0.0973 -0.50214,-0.0209 -0.20899,0.0845 -0.14691,0.14716 0.15829,0.15985 0.27617,0.0115 0.43091,-0.051 0.34385,-0.13896 z m 25.48371,-0.73788 c 0,-0.34824 -0.17684,-0.70169 -0.39298,-0.78545 -0.28544,-0.11062 -0.39298,0.0307 -0.39298,0.51647 0,0.37848 0.11372,0.59779 0.26199,0.50525 0.14409,-0.0899 0.26199,-0.0374 0.26199,0.11668 0,0.15411 0.0589,0.2802 0.13099,0.2802 0.072,0 0.13099,-0.28492 0.13099,-0.63315 z m -19.08576,-0.1606 c 0.0216,-0.29104 0.0511,-0.64823 0.0655,-0.79375 0.0144,-0.14552 -0.0895,-0.26597 -0.23095,-0.26767 -0.14143,-0.002 -0.275,0.3555 -0.29683,0.79375 -0.0434,0.87111 0.39847,1.12695 0.46228,0.26767 z m -4.37328,0.0183 c 0.2625,-0.42894 -0.30791,-0.55928 -0.64617,-0.14766 -0.26324,0.32032 -0.24719,0.39396 0.0858,0.39396 0.22528,0 0.47743,-0.11084 0.56033,-0.2463 z m 22.41109,-0.1 c 0,-0.19047 -0.17329,-0.57743 -0.38509,-0.8599 -0.34816,-0.46433 -0.35522,-0.43112 -0.0736,0.3463 0.33482,0.92416 0.45865,1.06282 0.45865,0.5136 z m -23.84083,-0.44748 c 0,-0.14552 -0.11789,-0.26458 -0.26198,-0.26458 -0.1441,0 -0.26199,0.11906 -0.26199,0.26458 0,0.14552 0.11789,0.26458 0.26199,0.26458 0.14409,0 0.26198,-0.11906 0.26198,-0.26458 z m 11.47814,-0.33377 c 0.068,-0.35635 -0.0937,-0.45998 -0.71745,-0.45998 -0.52,0 -0.80517,0.13275 -0.80517,0.37483 0,0.76663 1.37797,0.8437 1.52262,0.0851 z m 16.02249,-1.25373 c 0,-0.98869 -0.28952,-1.29235 -0.98253,-1.03052 l -0.59757,0.22577 0.55762,1.10386 c 0.59343,1.17475 1.02248,1.04924 1.02248,-0.29911 z m -9.6855,0.40663 c 0.56619,-0.31844 0.59418,-0.3922 0.20646,-0.54423 -0.24667,-0.0967 -0.51988,-0.40299 -0.60712,-0.68059 -0.10055,-0.31994 -0.39933,-0.50473 -0.81609,-0.50473 -0.84922,0 -2.18908,-1.34422 -2.18908,-2.19621 0,-1.16918 -1.63173,-1.88187 -1.78664,-0.78035 -0.0606,0.43088 -0.2596,0.59531 -0.72046,0.59531 -0.47058,0 -0.63675,0.14385 -0.63675,0.55122 0,0.32389 -0.13505,0.50535 -0.32748,0.44001 -0.18012,-0.0612 -0.32749,-0.51757 -0.32749,-1.01423 0,-0.69542 -0.10476,-0.8947 -0.45565,-0.86676 -0.25062,0.02 -0.39103,-0.0694 -0.31203,-0.19844 0.079,-0.12909 -0.11354,-0.23471 -0.42788,-0.23471 -0.4954,0 -0.52494,0.0567 -0.22184,0.4255 0.2959,0.36007 0.2795,0.47733 -0.10661,0.76246 -0.37437,0.27646 -0.38908,0.363 -0.0819,0.48203 0.26127,0.10125 0.33717,0.42374 0.25125,1.06757 -0.11439,0.8573 -0.0431,0.96929 1.00878,1.585 1.63057,0.95441 2.19438,1.00102 2.1212,0.17535 -0.0459,-0.51838 0.13821,-0.76039 0.85145,-1.11888 0.88478,-0.4447 0.91009,-0.44286 0.91009,0.0661 0,0.289 0.17606,0.52357 0.39298,0.52357 0.21614,0 0.60667,0.2158 0.86784,0.47955 0.26116,0.26376 0.59984,0.43749 0.7526,0.38606 0.15276,-0.0514 0.34067,0.14949 0.41758,0.44648 0.16313,0.63002 0.34785,0.65285 1.23682,0.15287 z m -11.26545,-0.67121 c 0.75561,-0.5969 0.66261,-0.64268 -0.48488,-0.2387 -0.45378,0.15975 -0.82505,0.39788 -0.82505,0.52916 0,0.39528 0.61429,0.25907 1.30993,-0.29046 z m -4.90291,-0.79788 c -0.21059,-0.81327 -0.59882,-0.90649 -0.59882,-0.14378 0,0.40542 0.14783,0.67707 0.36846,0.67707 0.24041,0 0.32046,-0.18531 0.23036,-0.53329 z m -1.98687,0.10163 c -0.28242,-0.28523 0.34254,-1.18511 0.68073,-0.98017 0.17321,0.10497 0.14612,-0.0188 -0.0603,-0.27556 -0.20805,-0.2588 -0.58671,-0.41006 -0.85146,-0.34015 -0.33791,0.0893 -0.47678,-0.021 -0.47678,-0.37848 0,-0.27741 -0.0493,-0.50439 -0.10956,-0.50439 -0.0603,0 -0.30204,-0.0746 -0.53728,-0.16576 -0.3421,-0.13258 -0.39851,-0.0399 -0.28181,0.46302 0.0803,0.34583 0.1834,0.90646 0.2292,1.24585 0.0458,0.33939 0.2514,0.72452 0.45687,0.85584 0.42292,0.27031 1.20401,0.33589 0.95043,0.0798 z m 6.5754,-0.15042 c 0.17291,-0.17462 0.31438,-0.41275 0.31438,-0.52917 0,-0.38983 -0.39459,-0.21707 -0.72516,0.3175 -0.35825,0.57934 -0.0901,0.71752 0.41078,0.21167 z m 25.65618,0.15765 c -0.0871,-0.0879 -0.31302,-0.0973 -0.50214,-0.0209 -0.209,0.0845 -0.14692,0.14716 0.15828,0.15985 0.27618,0.0115 0.43092,-0.051 0.34386,-0.13896 z m -26.38975,-0.78181 c 0,-0.42995 -0.0498,-0.4469 -0.64022,-0.21807 -0.32422,0.12565 -0.35246,0.24672 -0.12274,0.52626 0.34404,0.41864 0.76296,0.24943 0.76296,-0.30819 z m 2.22689,0.41249 c 0.0891,-0.14552 0.0371,-0.26458 -0.11553,-0.26458 -0.15259,0 -0.27745,0.11906 -0.27745,0.26458 0,0.14552 0.052,0.26459 0.11554,0.26459 0.0635,0 0.18839,-0.11907 0.27744,-0.26459 z m -4.92978,-0.57877 c -0.0836,-0.21107 -0.14571,-0.14837 -0.15828,0.15985 -0.0114,0.27892 0.0505,0.43518 0.1376,0.34727 0.0871,-0.0879 0.0964,-0.31613 0.0207,-0.50712 z m 5.23975,-0.79375 c -0.0836,-0.21107 -0.14572,-0.14837 -0.15829,0.15985 -0.0114,0.27892 0.0505,0.43518 0.1376,0.34727 0.0871,-0.0879 0.0964,-0.31613 0.0207,-0.50712 z m 8.99058,0.188 c 0,-0.52096 1.15669,-1.26287 1.9689,-1.26287 0.35803,0 0.64916,-0.0744 0.64696,-0.16537 -0.0172,-0.70712 -1.50457,-1.46158 -2.11376,-1.07215 -0.20411,0.13047 -0.74052,0.23905 -1.19202,0.24128 -0.68501,0.003 -0.84449,0.12451 -0.96328,0.73165 -0.0822,0.4202 0.0181,0.97912 0.23748,1.32292 0.42487,0.66588 1.41572,0.80903 1.41572,0.20454 z m 10.33727,-2.88627 c -0.17156,-0.41992 -0.4887,-0.8634 -0.70476,-0.98551 -0.25816,-0.14591 -0.34692,-0.46454 -0.25891,-0.92947 0.0897,-0.47408 0.0387,-0.64805 -0.15462,-0.52737 -0.1587,0.0991 -0.22212,0.35487 -0.14095,0.56849 0.0906,0.2384 -0.009,0.3884 -0.25797,0.3884 -0.62129,0 -0.83117,-0.57055 -0.3426,-0.93134 0.40245,-0.2972 0.40315,-0.34937 0.009,-0.67969 -0.37028,-0.31035 -0.51195,-0.25359 -1.06872,0.42819 -1.01584,1.24391 -1.12092,1.73497 -0.59562,2.78344 0.40245,0.80326 0.60741,0.94305 1.41662,0.96622 1.20994,0.0346 1.70882,0.46291 1.74785,1.50048 0.0263,0.69917 0.0801,0.62235 0.34684,-0.49542 0.24463,-1.02506 0.24548,-1.49482 0.004,-2.08642 z m -23.69189,1.69374 c -0.20148,-0.12575 -0.24461,-0.52633 -0.12564,-1.16682 l 0.18118,-0.97532 -0.88259,0.10755 c -1.33684,0.16292 -1.75766,0.41522 -1.61453,0.96797 0.16165,0.6243 1.59049,1.92385 1.90168,1.72962 0.12924,-0.0807 0.32878,0.004 0.44343,0.18838 0.15207,0.24443 0.23479,0.2005 0.30587,-0.16241 0.0536,-0.27361 -0.0406,-0.58364 -0.2094,-0.68897 z m 2.61315,0.78955 c 0,-0.14552 -0.1179,-0.26458 -0.26199,-0.26458 -0.1441,0 -0.26199,0.11906 -0.26199,0.26458 0,0.14552 0.11789,0.26459 0.26199,0.26459 0.14409,0 0.26199,-0.11907 0.26199,-0.26459 z m 28.76406,-2.18281 c 0.2037,-0.24803 0.11345,-0.34027 -0.3609,-0.36888 -0.62023,-0.0374 -0.8045,0.17315 -0.45787,0.52322 0.26046,0.26304 0.51546,0.21497 0.81877,-0.15434 z m -29.28804,-0.59531 c 0,-0.21828 -0.11789,-0.39688 -0.26199,-0.39688 -0.14409,0 -0.26198,0.1786 -0.26198,0.39688 0,0.21828 0.11789,0.39687 0.26198,0.39687 0.1441,0 0.26199,-0.17859 0.26199,-0.39687 z m 6.20718,-0.27776 c 0.48687,-0.4917 0.12875,-0.64828 -1.48268,-0.64828 -1.66291,0 -2.36466,0.40842 -1.63703,0.95275 0.52873,0.39554 2.62958,0.19051 3.11971,-0.30447 z m -3.70753,-0.4013 c 0.24112,-0.39401 -0.0384,-0.60822 -0.54005,-0.41383 -0.23149,0.0897 -0.34751,0.28301 -0.25783,0.42956 0.21236,0.34701 0.58033,0.33976 0.79788,-0.0157 z m 6.6699,0.05 c 0,-0.30735 -0.76221,-0.93833 -0.92945,-0.76943 -0.23725,0.2396 0.19222,1.00161 0.5645,1.00161 0.20072,0 0.36495,-0.10448 0.36495,-0.23218 z m -11.78942,-0.28137 c 0,-0.13693 -0.1179,-0.32255 -0.26199,-0.41249 -0.14409,-0.0899 -0.26199,0.0221 -0.26199,0.24897 0,0.22687 0.1179,0.41249 0.26199,0.41249 0.14409,0 0.26199,-0.11204 0.26199,-0.24897 z m 1.22691,-0.59439 c -0.0836,-0.21107 -0.14571,-0.14837 -0.15828,0.15985 -0.0114,0.27892 0.0505,0.43519 0.1376,0.34727 0.0871,-0.0879 0.0964,-0.31612 0.0207,-0.50712 z m 15.13159,-0.67799 c -0.21981,-1.02085 -1.4974,-3.57632 -1.84603,-3.69248 -0.25299,-0.0843 -1.15379,2.89614 -1.15181,3.81094 4.2e-4,0.19344 0.53653,0.35476 1.37612,0.41408 0.75648,0.0534 1.4661,0.1192 1.57691,0.14612 0.11082,0.0269 0.13098,-0.27848 0.0448,-0.67866 z m -8.49714,-0.11728 c -0.84158,-0.3144 -1.33974,-0.0733 -0.52572,0.25447 0.36023,0.14503 0.76354,0.19854 0.89625,0.1189 0.1327,-0.0796 -0.034,-0.24766 -0.37053,-0.37337 z m 12.76904,-1.42722 c -0.075,-0.0757 -0.47416,0.0771 -0.88708,0.33961 -0.52559,0.33413 -0.72584,0.65277 -0.66762,1.06237 0.0781,0.54941 0.13217,0.5287 0.88708,-0.33962 0.44217,-0.50858 0.7426,-0.98665 0.66762,-1.06236 z m -15.67532,0.9064 c -0.19886,-0.37526 -0.36981,-0.48788 -0.43603,-0.28724 -0.18884,0.57213 -0.62596,0.35747 -0.54021,-0.26529 0.0569,-0.41296 -0.0528,-0.59634 -0.35803,-0.59869 -0.24199,-0.002 -0.5269,-0.0911 -0.63313,-0.19843 -0.27481,-0.27753 -0.89178,-0.24177 -0.89178,0.0517 0,0.13571 0.23339,0.32156 0.51865,0.413 0.28526,0.0914 0.50708,0.24828 0.49295,0.34856 -0.0832,0.59031 0.1042,0.84423 0.62582,0.84782 0.32421,0.002 0.76289,0.11482 0.97486,0.2502 0.54343,0.34708 0.62733,0.15625 0.2469,-0.56162 z m 5.61704,-0.4218 c -0.0846,-0.32656 -0.32945,-0.59375 -0.5442,-0.59375 -0.24841,0 -0.3326,0.15226 -0.23143,0.41852 0.0875,0.23018 0.15902,0.67241 0.15902,0.98273 0,0.49645 0.0463,0.5175 0.38518,0.17523 0.2299,-0.23218 0.3232,-0.62833 0.23143,-0.98273 z m -10.02256,-0.51929 c -0.23832,-0.41352 -0.27262,-0.38749 -0.27961,0.21217 -0.004,0.37593 0.0805,0.77357 0.18853,0.88363 0.31473,0.32056 0.38943,-0.57813 0.0911,-1.0958 z m 18.05153,0.70368 c 0,-0.13694 -0.17314,-0.24897 -0.38476,-0.24897 -0.23372,0 -0.32579,0.1552 -0.23454,0.39535 0.15465,0.407 0.6193,0.29717 0.6193,-0.14638 z m 14.40929,0.28019 c 0,-0.14552 -0.11789,-0.26458 -0.26199,-0.26458 -0.14409,0 -0.26198,0.11906 -0.26198,0.26458 0,0.14552 0.11789,0.26459 0.26198,0.26459 0.1441,0 0.26199,-0.11907 0.26199,-0.26459 z m -30.9647,-0.51205 c -0.17416,-0.28163 -0.41094,-0.45319 -0.5262,-0.38126 -0.11525,0.0719 -0.21885,-0.0846 -0.23023,-0.34784 -0.0114,-0.26325 -0.078,-0.33641 -0.14798,-0.16258 -0.18335,0.45521 0.38093,1.40373 0.83507,1.40373 0.3161,0 0.32865,-0.0927 0.0693,-0.51205 z m 6.17066,0.11518 c -0.16755,-0.44097 -0.35838,-0.48116 -1.03661,-0.21832 -0.42756,0.1657 -0.42438,0.19295 0.0441,0.37828 0.81376,0.32195 1.15477,0.26699 0.99254,-0.15996 z m 4.61856,-1.26436 c 0.18522,-0.6954 0.28679,-1.31482 0.22571,-1.3765 -0.0611,-0.0617 -0.57507,-0.45197 -1.14223,-0.8673 l -1.03118,-0.75514 -0.84774,0.54415 c -0.46625,0.29928 -0.85272,0.69298 -0.85882,0.87488 -0.006,0.1819 -0.13313,0.33073 -0.2823,0.33073 -0.18682,0 -0.1867,0.15945 3.8e-4,0.51247 0.21688,0.40927 0.45598,0.48225 1.18726,0.3624 0.84724,-0.13885 0.94341,-0.0832 1.28646,0.7443 0.69166,1.66839 0.936,1.60658 1.46246,-0.36999 z m 10.59886,1.0581 c -0.18981,-0.49955 -0.90287,-0.82329 -0.90287,-0.40992 0,0.2825 0.84089,1.04578 0.98821,0.897 0.0396,-0.04 0.001,-0.25922 -0.0853,-0.48708 z m -3.22733,-0.63703 c 0.31814,-0.39498 0.30161,-0.42443 -0.14347,-0.25562 -0.30765,0.11669 -0.58298,0.0602 -0.70886,-0.14556 -0.13371,-0.21848 -0.19037,-0.1289 -0.16169,0.25562 0.0524,0.70213 0.51253,0.76818 1.01402,0.14556 z m -1.8839,-0.49979 c -0.28345,-0.34492 -0.27976,-0.45634 0.0213,-0.64425 0.60886,-0.38003 -0.12868,-1.44665 -1.02227,-1.47836 -0.61169,-0.0217 -0.72482,0.0733 -0.67151,0.56378 0.0987,0.90756 0.90386,1.97587 1.48926,1.97587 0.44909,0 0.47585,-0.0609 0.18321,-0.41704 z m 12.85752,-0.046 c 0.002,-0.25466 0.0731,-0.76068 0.15805,-1.12448 0.12102,-0.51825 0.0416,-0.46096 -0.36669,0.26458 -0.51321,0.91193 -0.52609,1.32292 -0.0415,1.32292 0.13559,0 0.24814,-0.20836 0.25011,-0.46302 z m -6.43688,-1.36519 c 0.20924,-0.3419 -0.12428,-1.1085 -0.40582,-0.93278 -0.31196,0.19471 -0.30196,1.17349 0.012,1.17349 0.13559,0 0.31282,-0.10832 0.39383,-0.24071 z m -40.36766,-0.42073 c 0.0829,-0.21828 0.0366,-0.39688 -0.10296,-0.39688 -0.13957,0 -0.25377,0.1786 -0.25377,0.39688 0,0.21828 0.0463,0.39687 0.10297,0.39687 0.0566,0 0.17082,-0.17859 0.25376,-0.39687 z m 12.93281,-0.0819 c 0.35993,-0.23093 0.33332,-1.90116 -0.0303,-1.90198 -0.12821,-2.9e-4 -0.37588,0.19666 -0.55037,0.43766 -0.1745,0.241 -0.60012,0.45918 -0.94584,0.48484 -0.3724,0.0276 -0.66573,0.24026 -0.71973,0.52169 -0.0755,0.39365 0.0479,0.45442 0.72046,0.35473 0.44639,-0.0662 0.81162,-0.0219 0.81162,0.0985 0,0.27259 0.29351,0.27448 0.71415,0.005 z m 4.70456,-0.36462 c -0.0836,-0.21106 -0.14572,-0.14837 -0.15829,0.15986 -0.0114,0.27891 0.0505,0.43518 0.1376,0.34726 0.0871,-0.0879 0.0964,-0.31612 0.0207,-0.50712 z m 19.20808,-0.35352 c 0,-0.19059 0.14737,-0.40657 0.32748,-0.47997 0.18012,-0.0734 -0.0683,-0.14285 -0.552,-0.15434 -0.67335,-0.016 -0.84222,-0.11391 -0.72047,-0.41776 0.0875,-0.21829 0.22712,-0.56634 0.31034,-0.77346 0.18707,-0.46557 -0.81767,-1.09125 -1.07558,-0.6698 -0.0936,0.15289 -0.10573,0.44742 -0.027,0.65452 0.0787,0.2071 -0.0288,0.55008 -0.23878,0.76218 -0.45095,0.45542 -0.49778,1.11359 -0.097,1.36372 0.15665,0.0978 0.41602,0.0453 0.57638,-0.11668 0.40437,-0.40837 0.71073,-0.3678 0.71073,0.0941 0,0.23669 0.1536,0.32904 0.39298,0.23627 0.21614,-0.0838 0.39298,-0.30822 0.39298,-0.49881 z m 1.94925,-0.28954 c 0.15527,-0.62476 0.0288,-1.15179 -0.20948,-0.87278 -0.24724,0.28954 -0.41126,1.56545 -0.20124,1.56545 0.13122,0 0.31604,-0.3117 0.41072,-0.69267 z m -6.66502,-0.10108 c 0,-0.29398 -0.17466,-0.52916 -0.39298,-0.52916 -0.39885,0 -0.5374,0.5597 -0.21832,0.88194 0.33214,0.33544 0.6113,0.17434 0.6113,-0.35278 z m -10.90872,-0.13229 c 0.0829,-0.21828 0.051,-0.39687 -0.0709,-0.39687 -0.12193,0 -0.36845,0.17859 -0.54783,0.39687 -0.26551,0.32309 -0.25233,0.39688 0.0709,0.39688 0.21837,0 0.46489,-0.1786 0.54783,-0.39688 z m 4.6115,0.0116 c 0.4309,-0.52434 0.17129,-0.85359 -0.78476,-0.9953 -0.91841,-0.13613 -1.37117,0.28423 -0.54201,0.50321 0.30269,0.0799 0.55034,0.31005 0.55034,0.51136 0,0.47668 0.37656,0.46733 0.77643,-0.0193 z m -10.73195,-0.14388 c 0,-0.14552 -0.052,-0.26458 -0.11553,-0.26458 -0.0635,0 -0.18839,0.11906 -0.27745,0.26458 -0.0891,0.14552 -0.0371,0.26458 0.11554,0.26458 0.15259,0 0.27744,-0.11906 0.27744,-0.26458 z m 5.29466,-0.57954 c -0.1261,-0.12736 -0.42885,-0.15422 -0.67276,-0.0597 -0.34643,0.13425 -0.37708,0.25266 -0.14004,0.5411 0.23449,0.28534 0.38735,0.29891 0.67276,0.0597 0.21109,-0.17693 0.27109,-0.40875 0.14004,-0.5411 z m 20.38009,0.31496 c 0,-0.29104 -0.10415,-0.52917 -0.23143,-0.52917 -0.12729,0 -0.2931,0.23813 -0.36846,0.52917 -0.0891,0.34392 -0.008,0.52916 0.23143,0.52916 0.20265,0 0.36846,-0.23812 0.36846,-0.52916 z m -11.95837,-0.39242 c 0.0872,-0.2295 0.3216,-0.32557 0.56459,-0.23139 0.24578,0.0952 0.56018,-0.0388 0.76971,-0.32821 0.29457,-0.40684 0.29578,-0.57348 0.007,-0.9896 -0.19087,-0.27521 -0.29021,-0.64994 -0.22076,-0.83274 0.21414,-0.56355 -0.72394,-0.71524 -1.28992,-0.20858 -0.38315,0.34298 -0.55522,0.38033 -0.63892,0.13867 -0.063,-0.1819 -0.23298,-0.33073 -0.37773,-0.33073 -0.1639,0 -0.1936,0.42419 -0.0787,1.12448 0.2964,1.80699 0.90487,2.60481 1.26459,1.6581 z m 4.01092,-0.0763 c 0.22546,-0.14486 0.20412,-0.33383 -0.0817,-0.72355 -0.37872,-0.51641 -0.39458,-0.51695 -0.75523,-0.0255 -0.55964,0.7626 0.0152,1.27703 0.83693,0.74904 z m -24.01499,-0.325 c 0,-0.14552 -0.12485,-0.26459 -0.27745,-0.26459 -0.15259,0 -0.20458,0.11907 -0.11553,0.26459 0.089,0.14552 0.21391,0.26458 0.27745,0.26458 0.0635,0 0.11553,-0.11906 0.11553,-0.26458 z m 13.81437,0.10473 c -0.0871,-0.0879 -0.31302,-0.0973 -0.50214,-0.0209 -0.209,0.0845 -0.14692,0.14716 0.15828,0.15985 0.27618,0.0115 0.43091,-0.051 0.34386,-0.13896 z m 16.56812,-1.55994 c 0,-0.43656 -0.0866,-0.67469 -0.19248,-0.52917 -0.10586,0.14552 -0.35949,0.26459 -0.56363,0.26459 -0.20413,0 -0.42653,0.1678 -0.49422,0.37289 -0.0846,0.25641 0.0108,0.32099 0.30565,0.20674 0.33173,-0.12856 0.42964,-0.003 0.43274,0.55315 0.003,0.56161 0.0597,0.6323 0.25798,0.32242 0.13968,-0.21828 0.25396,-0.75406 0.25396,-1.19062 z m -1.5639,0.92604 c 0,-0.14552 -0.12485,-0.26458 -0.27745,-0.26458 -0.1526,0 -0.20458,0.11906 -0.11553,0.26458 0.089,0.14552 0.21391,0.26458 0.27745,0.26458 0.0635,0 0.11553,-0.11906 0.11553,-0.26458 z m -27.88451,-0.68678 c -0.0972,-0.39115 -0.0392,-0.8467 0.13467,-1.05833 0.23337,-0.28398 0.23112,-0.37157 -0.01,-0.37157 -0.21191,0 -0.25974,-0.25354 -0.14626,-0.77535 0.13446,-0.61826 0.058,-0.83513 -0.37723,-1.07038 -0.49717,-0.26871 -0.54083,-0.22837 -0.48949,0.45219 0.031,0.41098 -0.0332,0.89356 -0.14262,1.07242 -0.112,0.18301 -0.0188,0.50713 0.21309,0.74136 0.22665,0.2289 0.34191,0.53085 0.25613,0.67102 -0.14511,0.23713 0.31967,1.02541 0.6046,1.02541 0.07,0 0.0505,-0.30904 -0.0434,-0.68677 z m 3.9783,0.22375 c 0.0633,-0.19193 -0.11353,-0.33073 -0.4213,-0.33073 -0.57294,0 -0.91777,0.34553 -0.63242,0.6337 0.2636,0.26622 0.92916,0.0748 1.05372,-0.30297 z m 12.64076,0.0992 c 0,-0.20009 -0.0834,-0.76564 -0.18542,-1.25677 l -0.18542,-0.89297 -0.14206,0.77192 c -0.0781,0.42456 -0.30584,0.82696 -0.50602,0.89422 -0.23712,0.0797 -0.29389,0.008 -0.16292,-0.20619 0.20883,-0.34124 -0.26756,-0.78725 -0.84856,-0.79444 -0.49593,-0.006 -0.397,0.32252 0.33809,1.12313 0.70213,0.76472 1.69231,0.976 1.69231,0.3611 z m -6.55369,-0.0992 c -0.002,-0.10914 -0.11111,-0.36938 -0.24202,-0.5783 -0.20039,-0.31983 -0.30523,-0.32352 -0.66335,-0.0234 -0.33759,0.28295 -0.35523,0.40143 -0.0855,0.57424 0.42728,0.27374 0.99613,0.28947 0.99084,0.0274 z m -7.33163,-0.59531 c 0,-0.14552 -0.052,-0.26459 -0.11553,-0.26459 -0.0635,0 -0.18839,0.11907 -0.27745,0.26459 -0.089,0.14552 -0.0371,0.26458 0.11553,0.26458 0.1526,0 0.27745,-0.11906 0.27745,-0.26458 z m 24.34678,-0.49515 c 0.22381,-0.42234 0.0714,-0.61503 -1.03616,-1.31037 -1.23404,-0.77473 -1.3117,-0.79043 -1.56311,-0.316 -0.42529,0.80254 -0.31527,1.32777 0.27813,1.32777 0.29848,0 0.71953,0.17859 0.93567,0.39687 0.53209,0.53737 1.0688,0.4993 1.38547,-0.0983 z m -30.22794,-0.36475 c -0.0712,-0.92309 0.12048,-1.0678 0.73293,-0.55342 0.3099,0.26028 0.41609,0.30375 0.23597,0.0966 -0.18011,-0.20714 -0.32748,-0.71 -0.32748,-1.11746 0,-0.54834 -0.12781,-0.74083 -0.4919,-0.74083 -0.62635,0 -0.97222,0.43805 -1.20173,1.52204 -0.15701,0.74157 -0.0978,0.89477 0.42822,1.10771 0.33574,0.13592 0.62382,0.25467 0.64017,0.26389 0.0163,0.009 0.009,-0.25112 -0.0162,-0.57854 z m 25.26821,0.33073 c 0,-0.14552 -0.052,-0.26458 -0.11553,-0.26458 -0.0635,0 -0.18839,0.11906 -0.27745,0.26458 -0.0891,0.14552 -0.0371,0.26458 0.11553,0.26458 0.1526,0 0.27745,-0.11906 0.27745,-0.26458 z m -11.95666,-0.39687 c -0.13731,-0.36137 -1.14269,-0.58665 -1.14269,-0.25606 0,0.1079 0.7497,0.4937 1.23621,0.63616 0.0315,0.009 -0.0106,-0.16182 -0.0935,-0.3801 z m -3.59099,-0.276 c 0.0853,-0.22456 0.0931,-0.47093 0.0173,-0.5475 -0.17054,-0.17223 -1.23682,0.47853 -1.23682,0.75485 0,0.38106 1.06474,0.20003 1.21953,-0.20735 z m 6.84204,0.0941 c -0.15834,-0.47971 -0.6386,-0.54742 -0.6386,-0.09 0,0.22233 0.16702,0.40423 0.37115,0.40423 0.20413,0 0.32448,-0.14139 0.26745,-0.3142 z m 8.18164,0.0496 c 0,-0.14552 -0.20632,-0.26276 -0.45848,-0.26053 -0.39181,0.003 -0.40134,0.0414 -0.0655,0.26053 0.49443,0.32269 0.52398,0.32269 0.52398,0 z m 10.2175,0 c 0,-0.14552 -0.12485,-0.26458 -0.27745,-0.26458 -0.1526,0 -0.20459,0.11906 -0.11553,0.26458 0.089,0.14553 0.2139,0.26459 0.27745,0.26459 0.0635,0 0.11553,-0.11906 0.11553,-0.26459 z m -17.42524,-0.86427 c -0.5327,-0.30106 -0.76963,-0.0918 -0.55015,0.48579 0.13823,0.36378 0.2354,0.3803 0.5729,0.0974 0.36612,-0.30687 0.36386,-0.36472 -0.0228,-0.58322 z m 4.8712,0.13667 c -0.1348,-0.25466 -0.32529,-0.70115 -0.42332,-0.99219 l -0.17824,-0.52916 -0.20095,0.52916 c -0.24258,0.63876 0.12862,1.45521 0.66161,1.45521 0.28631,0 0.32269,-0.11957 0.1409,-0.46302 z m 1.86496,-0.38365 c -0.24452,-0.24694 -0.38425,-0.24694 -0.62877,0 -0.24452,0.24695 -0.17466,0.3175 0.31439,0.3175 0.48904,0 0.5589,-0.0705 0.31438,-0.3175 z m -14.63138,-1.06864 c -0.27226,-0.44489 -0.61627,-0.15983 -0.61627,0.51067 0,0.67787 0.0177,0.68753 0.36975,0.20136 0.20336,-0.28087 0.3143,-0.60128 0.24652,-0.71203 z m 5.27835,0.65854 c 0.22952,0.56787 0.56847,0.58827 1.08622,0.0654 0.35032,-0.3538 0.34964,-0.41473 -0.006,-0.55262 -0.21995,-0.0852 -0.5153,-0.083 -0.65633,0.005 -0.14104,0.088 -0.33104,0.0381 -0.42223,-0.11088 -0.10504,-0.17163 -0.30983,-0.12547 -0.55878,0.12595 -0.21614,0.21828 -0.30618,0.53871 -0.20009,0.71207 0.13326,0.21776 0.25121,0.15704 0.38156,-0.19641 0.17451,-0.47321 0.20272,-0.47685 0.37582,-0.0486 z m 8.34589,0.0702 c 0.0918,-0.24152 -0.074,-0.50192 -0.43044,-0.67605 -0.55855,-0.27288 -0.56115,-0.26819 -0.0712,0.12825 0.44536,0.36035 0.4535,0.41147 0.0655,0.41147 -0.24368,0 -0.44306,0.11907 -0.44306,0.26459 0,0.41391 0.71267,0.30994 0.87917,-0.12826 z m 11.48663,-0.18924 c -0.17291,-0.17463 -0.31439,-0.49878 -0.31439,-0.72033 0,-0.2814 0.12294,-0.22557 0.40784,0.18521 0.54853,0.7909 0.69736,0.74852 1.2928,-0.36809 l 0.50985,-0.95612 -0.61366,-0.50185 c -0.59726,-0.48842 -0.62507,-0.48872 -1.03975,-0.0113 -0.23435,0.26979 -0.54398,0.45156 -0.68807,0.40394 -0.14409,-0.0476 -0.42047,0.0148 -0.61418,0.13859 -0.57476,0.36748 0.37169,1.9699 1.25605,2.12659 0.0648,0.0115 -0.0236,-0.12199 -0.19649,-0.29661 z m 2.82848,-0.94858 -9.8e-4,-0.7183 -0.52299,0.86629 c -0.65436,1.08388 -0.65422,1.20763 9.8e-4,0.8535 0.32695,-0.17671 0.5236,-0.55328 0.52299,-1.00149 z m -12.87712,0.1416 c 0.13524,-0.47294 0.33766,-1.08779 0.44982,-1.36632 0.14357,-0.35654 0.11321,-0.4498 -0.10258,-0.31512 -0.16858,0.10522 -0.30651,0.0652 -0.30651,-0.0889 0,-0.15411 -0.23579,-0.2802 -0.52398,-0.2802 -0.4638,0 -0.66657,0.41082 -0.55499,1.12448 0.0475,0.30365 -0.35082,0.23615 -0.70254,-0.11907 -0.24453,-0.24694 -0.31439,-0.19392 -0.31439,0.23861 0,0.33804 0.33387,0.77203 0.85146,1.10679 0.4683,0.30288 0.87539,0.5527 0.90464,0.55515 0.0292,0.002 0.16383,-0.3825 0.29907,-0.85544 z m 5.44765,-0.57587 c 0.0808,-0.98007 0.006,-1.23971 -0.42751,-1.47376 -0.46873,-0.25334 -0.52563,-0.20289 -0.52563,0.46605 0,0.41258 -0.14737,0.90147 -0.32748,1.08642 -0.26275,0.26981 -0.20363,0.43848 0.2991,0.85328 0.34462,0.28435 0.68436,0.45865 0.75498,0.38733 0.0706,-0.0713 0.17256,-0.66502 0.22654,-1.31932 z m -16.41038,0.24514 c -0.23786,-0.63181 -0.1578,-0.77909 0.36897,-0.67882 0.23349,0.0444 0.66706,-0.4788 0.67496,-0.81455 0.01,-0.40849 -1.32409,-0.0549 -1.46348,0.38799 -0.19053,0.60536 0.0843,1.76684 0.41805,1.76684 0.15896,0 0.15951,-0.24174 0.001,-0.66146 z m -12.57539,-0.11668 c 0,-0.51909 -0.44297,-0.97936 -0.69632,-0.7235 -0.20572,0.20776 0.17035,1.23705 0.45199,1.23705 0.13438,0 0.24433,-0.23109 0.24433,-0.51355 z m 10.47949,-1.07083 c 0,-0.38781 0.1549,-0.50948 0.58947,-0.46302 0.37705,0.0403 0.58947,-0.08 0.58947,-0.33385 0,-0.27344 -0.27174,-0.39687 -0.87373,-0.39687 -1.09014,0 -1.49386,0.43073 -1.10013,1.17371 0.36768,0.69383 0.79492,0.70459 0.79492,0.02 z m 22.81011,-0.27701 c 0.57635,-0.31151 0.6859,-1.04902 0.15582,-1.04902 -0.19301,0 -0.48522,0.29765 -0.64935,0.66146 -0.33008,0.73162 -0.25383,0.7915 0.49353,0.38756 z m 4.18162,-0.85058 c 0.65357,-1.45411 0.6457,-2.18505 -0.0309,-2.86834 l -0.5478,-0.55323 -0.50015,0.54217 c -0.27508,0.29819 -0.50014,0.83777 -0.50014,1.19907 0,0.3613 -0.11726,0.7301 -0.26058,0.81955 -0.14332,0.0895 -0.38184,0.39146 -0.53004,0.67112 -0.21128,0.39869 -0.19074,0.47797 0.0952,0.36717 0.21972,-0.0851 0.42061,0.0749 0.50551,0.40283 0.25568,0.98742 1.20414,0.67625 1.76893,-0.58034 z m -37.8642,0.0661 c 0.0891,-0.14552 -0.0219,-0.26458 -0.24652,-0.26458 -0.22465,0 -0.40844,0.11906 -0.40844,0.26458 0,0.14552 0.11093,0.26458 0.24652,0.26458 0.13559,0 0.31939,-0.11906 0.40844,-0.26458 z m 2.42351,-0.0661 c -0.06,-0.18191 -0.30517,-0.36915 -0.54489,-0.4161 -0.30394,-0.0595 -0.388,0.0406 -0.27775,0.33073 0.18586,0.48912 0.98303,0.57184 0.82264,0.0854 z m 21.02434,0.0661 c 0,-0.14552 -0.11789,-0.26458 -0.26198,-0.26458 -0.1441,0 -0.26199,0.11906 -0.26199,0.26458 0,0.14552 0.11789,0.26458 0.26199,0.26458 0.14409,0 0.26198,-0.11906 0.26198,-0.26458 z m 3.79882,0 c -0.0891,-0.14552 -0.27981,-0.26458 -0.42391,-0.26458 -0.14409,0 -0.18912,0.11906 -0.10007,0.26458 0.0891,0.14552 0.27982,0.26458 0.42391,0.26458 0.14409,0 0.18912,-0.11906 0.10007,-0.26458 z m -23.05487,-0.97014 c 0,-0.52916 -0.131,-0.88194 -0.32749,-0.88194 -0.18011,0 -0.32748,0.16867 -0.32748,0.37482 0,0.20616 -0.14737,0.42492 -0.32748,0.48614 -0.26005,0.0884 -0.26091,0.19282 -0.004,0.50712 0.55143,0.67505 0.98661,0.46062 0.98661,-0.48614 z m 8.89214,0.58168 c -0.2797,-0.21365 -0.62645,-0.38846 -0.77054,-0.38846 -0.14409,0 -0.0331,0.17481 0.24656,0.38846 0.27971,0.21365 0.62645,0.38846 0.77054,0.38846 0.1441,0 0.0331,-0.17481 -0.24656,-0.38846 z m 16.5323,-0.4204 c 0.0762,-0.93113 -0.33443,-1.57301 -1.00336,-1.56834 -0.33939,0.002 -0.45858,0.0847 -0.28713,0.19844 0.16121,0.10691 0.27041,0.55157 0.24267,0.98814 -0.0803,1.26422 0.945,1.6378 1.04782,0.38176 z m -15.59992,0.27969 c 0,-0.14552 -0.12486,-0.26458 -0.27745,-0.26458 -0.1526,0 -0.20459,0.11906 -0.11553,0.26458 0.089,0.14553 0.2139,0.26459 0.27744,0.26459 0.0635,0 0.11554,-0.11906 0.11554,-0.26459 z m -2.0959,-0.26458 c 0,-0.14552 -0.26526,-0.26276 -0.58947,-0.26053 -0.47667,0.003 -0.51427,0.0531 -0.19649,0.26053 0.50793,0.3315 0.78596,0.3315 0.78596,0 z m 6.48938,-0.39961 c -0.0493,-0.6011 -0.58913,-0.81734 -0.59868,-0.2398 -0.002,0.1334 -0.0976,0.39136 -0.21195,0.57327 -0.14164,0.22528 -0.0369,0.33072 0.32856,0.33072 0.41265,0 0.52393,-0.15332 0.48207,-0.66419 z m 16.77187,-0.16573 c -0.0654,-0.19816 -0.18416,-0.0782 -0.2768,0.27955 -0.11396,0.44009 -0.0799,0.54339 0.11455,0.34706 0.15224,-0.15375 0.22526,-0.43573 0.16225,-0.62661 z m -29.6718,0.0495 c -0.0964,-0.15757 -0.29767,-0.21014 -0.44719,-0.11682 -0.17602,0.10987 -0.14923,0.24622 0.076,0.3868 0.42043,0.26242 0.6118,0.12322 0.37117,-0.26998 z m 7.72049,0.2513 c 0,-0.14552 -0.12486,-0.26459 -0.27745,-0.26459 -0.1526,0 -0.20459,0.11907 -0.11554,0.26459 0.0891,0.14552 0.21391,0.26458 0.27745,0.26458 0.0635,0 0.11554,-0.11906 0.11554,-0.26458 z m 19.27016,-0.0231 c 0.26998,-0.44117 -0.33723,-0.94707 -0.69865,-0.58208 -0.30231,0.30531 -0.1131,0.86972 0.29156,0.86972 0.12709,0 0.31028,-0.12944 0.40709,-0.28764 z m 1.25524,-0.12064 c -0.0853,-0.22456 -0.21133,-0.35155 -0.28,-0.28219 -0.0687,0.0694 -0.0472,0.25308 0.0478,0.40828 0.25833,0.42214 0.40932,0.34013 0.23217,-0.12609 z m 6.96483,-1.66429 c 0.0124,-0.59379 -0.0886,-0.84592 -0.30907,-0.7717 -0.32627,0.10984 -0.33952,0.22053 -0.22174,1.85208 0.053,0.73482 0.0948,0.78292 0.28724,0.33073 0.12384,-0.29104 0.23345,-0.92604 0.24357,-1.41111 z m -40.2078,1.03252 c 0.0829,-0.13547 0.0309,-0.32109 -0.11553,-0.41249 -0.14645,-0.0914 -0.26626,0.0194 -0.26626,0.2463 0,0.46475 0.1572,0.53318 0.38179,0.16619 z m 5.20956,-0.66627 c 0.10229,-0.26921 0.0198,-0.33462 -0.27694,-0.21962 -0.26463,0.10256 -0.35744,0.0573 -0.24828,-0.12109 0.1109,-0.18122 -0.0164,-0.23449 -0.35,-0.14639 -0.87774,0.2318 -0.61464,0.62561 0.56108,0.83981 0.0927,0.0169 0.23401,-0.14184 0.31414,-0.35271 z m 27.41903,0.11882 c 0,-0.14552 -0.1838,-0.26458 -0.40844,-0.26458 -0.22465,0 -0.33558,0.11906 -0.24653,0.26458 0.089,0.14552 0.27285,0.26458 0.40844,0.26458 0.13559,0 0.24653,-0.11906 0.24653,-0.26458 z m -2.35789,-0.39687 c 0,-0.21829 -0.17684,-0.39688 -0.39298,-0.39688 -0.21614,0 -0.39298,0.17859 -0.39298,0.39688 0,0.21828 0.17684,0.39687 0.39298,0.39687 0.21614,0 0.39298,-0.17859 0.39298,-0.39687 z m 3.92981,-0.66146 c 0,-0.14552 -0.052,-0.26459 -0.11553,-0.26459 -0.0635,0 -0.18839,0.11907 -0.27745,0.26459 -0.0891,0.14552 -0.0371,0.26458 0.11553,0.26458 0.1526,0 0.27745,-0.11906 0.27745,-0.26458 z m -4.59938,-0.76988 c 0.20923,-0.3419 -0.12429,-1.1085 -0.40583,-0.93278 -0.31196,0.19472 -0.30196,1.17349 0.012,1.17349 0.13559,0 0.31282,-0.10832 0.39384,-0.24071 z m 4.59938,-0.17178 c 0,-0.22687 -0.11789,-0.3389 -0.26198,-0.24897 -0.1441,0.0899 -0.26199,0.27556 -0.26199,0.41249 0,0.13694 0.11789,0.24897 0.26199,0.24897 0.14409,0 0.26198,-0.18562 0.26198,-0.41249 z m 6.02571,-0.11668 c 0,-0.14552 -0.12485,-0.26458 -0.27745,-0.26458 -0.1526,0 -0.20459,0.11906 -0.11553,0.26458 0.089,0.14553 0.2139,0.26459 0.27745,0.26459 0.0635,0 0.11553,-0.11906 0.11553,-0.26459 z m -20.435,-1.70313 c 0.21614,-0.0355 0.42877,-0.30714 0.47251,-0.60366 0.0584,-0.39576 -0.10658,-0.5863 -0.62038,-0.71653 -0.82809,-0.20989 -0.78108,-0.25103 -0.99242,0.86844 -0.14582,0.77241 -0.10814,0.86366 0.28985,0.70204 0.2516,-0.10217 0.6343,-0.2148 0.85044,-0.25029 z m 20.71619,-0.94268 c 0.36159,0 0.29349,-0.51575 -0.12374,-0.93712 -0.31404,-0.31715 -0.38904,-0.27957 -0.52374,0.26246 -0.0865,0.34794 -0.0724,0.85043 0.0313,1.11666 0.17535,0.45025 0.19497,0.45171 0.28096,0.021 0.0508,-0.25466 0.2017,-0.46302 0.33523,-0.46302 z m -24.90799,-0.41688 c 0,-0.21153 -0.16223,-0.29739 -0.39298,-0.20797 -0.21614,0.0838 -0.39298,0.31442 -0.39298,0.51256 0,0.21154 0.16224,0.29739 0.39298,0.20797 0.21614,-0.0838 0.39298,-0.31441 0.39298,-0.51256 z m 1.83391,0.1523 c 0,-0.14552 -0.16988,-0.26459 -0.37751,-0.26459 -0.20764,0 -0.45039,0.11907 -0.53944,0.26459 -0.089,0.14552 0.0808,0.26458 0.37752,0.26458 0.29669,0 0.53943,-0.11906 0.53943,-0.26458 z m 22.00693,-0.3175 c 0,-0.42741 -0.0775,-0.50385 -0.29156,-0.28764 -0.16036,0.16195 -0.21235,0.42388 -0.11553,0.58208 0.27099,0.44283 0.40709,0.3444 0.40709,-0.29444 z m -25.72714,0 c 0.17291,-0.17463 0.31438,-0.59837 0.31438,-0.94166 0,-0.34328 0.1069,-0.55743 0.23756,-0.47588 0.13065,0.0816 0.17537,-0.0919 0.0994,-0.38539 -0.16519,-0.637938 -0.59063,-0.964345 -0.61896,-0.474874 -0.0445,0.768654 -0.2202,1.356264 -0.48577,1.624464 -0.32774,0.33098 -0.37424,0.97084 -0.0705,0.97084 0.11527,0 0.35106,-0.14288 0.52397,-0.3175 z m 8.43598,-0.34396 c 0,-0.41157 -0.14846,-0.66146 -0.39298,-0.66146 -0.42284,0 -0.48552,0.24233 -0.23396,0.9044 0.24475,0.64413 0.62694,0.49603 0.62694,-0.24294 z m -3.01285,-0.66146 c -0.41415,-0.43656 -0.83249,-0.79375 -0.92964,-0.79375 -0.37065,0 0.0895,1.30061 0.49906,1.41054 1.05717,0.28376 1.15371,0.14547 0.43058,-0.61679 z m -2.01257,-0.39687 c 0.16413,-0.36381 0.20663,-0.661462 0.0944,-0.661462 -0.32176,0 -0.83274,0.600702 -0.83274,0.978962 0,0.56887 0.41985,0.38831 0.73829,-0.3175 z m 2.56274,-0.29104 c -0.0932,-0.24539 -0.22847,-0.386629 -0.30052,-0.313869 -0.0721,0.07276 -0.0547,0.333059 0.0385,0.578449 0.0932,0.24538 0.22848,0.38662 0.30052,0.31386 0.072,-0.0728 0.0547,-0.33306 -0.0385,-0.57844 z m 19.66651,-0.12644 c 0,-0.632576 -0.0536,-0.71758 -0.24025,-0.380808 -0.13213,0.238458 -0.17513,0.604908 -0.0956,0.814358 0.2259,0.59453 0.3358,0.45264 0.3358,-0.43355 z m 1.10784,-0.525687 c -0.4766,-0.297473 -0.57938,-0.13411 -0.35827,0.569447 0.1714,0.54538 0.20678,0.55492 0.44738,0.12072 0.18823,-0.33968 0.16332,-0.532611 -0.0891,-0.690167 z m -15.44587,-0.08892 c 0.30285,-0.494884 0.72509,-0.967397 0.93832,-1.050029 0.51988,-0.201474 0.49631,-0.960599 -0.0298,-0.960599 -0.22963,0 -0.47967,0.240041 -0.55563,0.533423 -0.0791,0.305613 -0.32041,0.503357 -0.56495,0.463021 -0.31385,-0.05177 -0.40734,0.104029 -0.35323,0.588631 0.0433,0.387479 -0.11231,0.796309 -0.37756,0.99219 -0.39798,0.29389 -0.40145,0.33315 -0.0295,0.33315 0.23193,0 0.66948,-0.4049 0.97233,-0.899787 z m -3.78034,-0.485158 c 0.11692,0.106879 0.12778,0.0455 0.0241,-0.136404 -0.25274,-0.443529 -0.85352,-0.419999 -1.02841,0.04028 -0.2095,0.551349 0.15637,0.779258 0.49661,0.30935 0.16229,-0.224152 0.39074,-0.320103 0.50767,-0.213224 z m 16.02678,-0.516743 c -0.0836,-0.211067 -0.14571,-0.148372 -0.15829,0.159853 -0.0114,0.278914 0.0505,0.435184 0.13761,0.347265 0.0871,-0.08792 0.0964,-0.316122 0.0207,-0.507118 z m -19.04204,0.04961 c 0,-0.14552 -0.1179,-0.264583 -0.26199,-0.264583 -0.14409,0 -0.26199,0.119063 -0.26199,0.264583 0,0.145521 0.1179,0.264584 0.26199,0.264584 0.14409,0 0.26199,-0.119063 0.26199,-0.264584 z m -1.37006,-1.37276 c -0.0977,-0.296168 -0.34509,-0.392541 -1.38081,-0.538017 -0.39964,-0.05613 -0.52869,0.08336 -0.54385,0.587861 -0.0254,0.844376 0.16106,1.2052 0.41138,0.796163 0.14725,-0.240615 0.28323,-0.223297 0.55518,0.07071 0.31557,0.341177 0.40331,0.327155 0.70877,-0.113273 0.19174,-0.276456 0.30394,-0.638006 0.24933,-0.803444 z m 1.89403,0.827979 c 0,-0.29963 -0.11275,-0.474411 -0.25055,-0.388402 -0.1378,0.08601 -0.18413,0.331161 -0.10296,0.544782 0.20782,0.546923 0.35351,0.482474 0.35351,-0.15638 z m 0.55596,-0.162978 c -0.30885,-0.536368 -0.38343,-0.36469 -0.13061,0.300656 0.0899,0.236459 0.21854,0.374189 0.286,0.306067 0.0675,-0.06812 -0.002,-0.341147 -0.15539,-0.606723 z m 8.70833,0.310885 c -0.0829,-0.218282 -0.19713,-0.396875 -0.25376,-0.396875 -0.0566,0 -0.10297,0.178593 -0.10297,0.396875 0,0.218281 0.1142,0.396874 0.25377,0.396874 0.13957,0 0.1859,-0.178593 0.10296,-0.396874 z m -7.62825,-1.058334 c -0.13105,-0.692348 -0.43873,-0.854989 -0.72684,-0.384205 -0.2435,0.397896 0.0583,1.045664 0.48718,1.045664 0.24792,0 0.32474,-0.212004 0.23966,-0.661459 z m 17.22704,-0.381631 c 0,-0.11996 -0.23579,-0.280381 -0.52398,-0.35649 -0.58537,-0.154595 -0.67977,0.07807 -0.22005,0.542351 0.31085,0.313931 0.74403,0.205722 0.74403,-0.185861 z m -2.75087,-0.279827 c 0.0891,-0.145521 -0.0288,-0.264583 -0.26199,-0.264583 -0.23314,0 -0.35104,0.119062 -0.26198,0.264583 0.0891,0.145521 0.20694,0.264583 0.26198,0.264583 0.055,0 0.17294,-0.119062 0.26199,-0.264583 z M 165.5799,95.922269 c -0.0836,-0.211067 -0.14571,-0.148372 -0.15829,0.159852 -0.0114,0.278915 0.0505,0.435185 0.1376,0.347266 0.0871,-0.08792 0.0964,-0.316122 0.0207,-0.507118 z m 20.24949,-0.327415 c -0.35239,-0.355881 -0.61448,0.0046 -0.40471,0.556636 0.15051,0.396112 0.21343,0.408223 0.41443,0.07977 0.14295,-0.233584 0.13909,-0.486116 -0.01,-0.636404 z m -7.2387,-0.03126 c -0.0853,-0.224557 -0.21132,-0.351541 -0.27999,-0.282186 -0.0687,0.06936 -0.0471,0.253083 0.0478,0.408286 0.25833,0.422132 0.40932,0.340125 0.23217,-0.1261 z m 2.79146,-0.520307 c 0,-0.37521 -0.64624,-0.711825 -0.89134,-0.464288 -0.0861,0.08699 -0.15661,0.365294 -0.15661,0.618458 0,0.330037 0.14828,0.421139 0.52397,0.321919 0.28819,-0.07611 0.52398,-0.290349 0.52398,-0.476089 z m 7.72717,0.133221 c -0.26161,-0.291934 -0.54496,-0.460793 -0.62967,-0.375242 -0.0847,0.08555 0.0746,0.324405 0.35412,0.530789 0.71782,0.530081 0.83212,0.465556 0.27555,-0.155547 z m -1.80734,-0.266493 c 0.0614,-0.926355 0.12896,-1.054801 0.55499,-1.054801 0.40595,0 0.41003,-0.03948 0.0424,-0.410725 -0.58661,-0.592425 -1.83113,-0.01511 -1.68242,0.780455 0.0572,0.305971 0.11275,0.71387 0.12346,0.906441 0.0266,0.47818 0.92896,0.270433 0.96154,-0.22137 z m 4.38258,0.161691 c 0.0775,-0.204055 0.0715,-0.441147 -0.0134,-0.526871 -0.22445,-0.226671 -0.87812,0.385564 -0.70817,0.663274 0.21393,0.349584 0.56186,0.283809 0.72153,-0.136403 z m -1.73986,-1.001518 c -0.0836,-0.211067 -0.14571,-0.148372 -0.15828,0.159852 -0.0114,0.278915 0.0505,0.435184 0.1376,0.347266 0.0871,-0.08792 0.0964,-0.316122 0.0207,-0.507118 z m -16.44152,-0.852879 c 0.18103,-0.220293 0.20639,-0.435984 0.0619,-0.526191 -0.13471,-0.08408 -0.30624,0.08391 -0.38118,0.37332 -0.16144,0.623454 -0.094,0.655761 0.31931,0.152871 z m 22.02627,-3.182941 c 0,-0.06417 -0.11789,-0.190261 -0.26198,-0.280198 -0.1441,-0.08994 -0.26199,-0.03743 -0.26199,0.116677 0,0.154109 0.11789,0.280198 0.26199,0.280198 0.14409,0 0.26198,-0.0525 0.26198,-0.116677 z m -24.69594,60.776722 c -0.095,-0.1829 -0.0852,-0.97053 0.0282,-2.25328 0.0225,-0.25466 0.24725,-0.47139 0.49941,-0.48161 0.42044,-0.0171 0.41877,-0.0344 -0.0201,-0.20902 -0.42724,-0.17 -0.40334,-0.23108 0.22283,-0.56951 0.63624,-0.34388 0.73544,-0.33206 1.06803,0.12729 0.46124,0.63703 0.45831,0.71967 -0.0477,1.34687 -0.37015,0.45878 -0.39842,0.46271 -0.26498,0.0368 0.0873,-0.27872 0.0418,-0.40962 -0.10961,-0.31512 -0.14244,0.0889 -0.25899,0.40549 -0.25899,0.70351 0,0.34497 -0.12793,0.49228 -0.35208,0.40541 -0.24886,-0.0964 -0.31843,0.0413 -0.23731,0.46985 0.10959,0.57897 -0.3074,1.16276 -0.5277,0.73878 z M 157.94248,137.4339 c -0.11215,-0.26093 -0.1304,-0.54867 -0.0405,-0.63941 0.26604,-0.26868 0.4805,0.10873 0.35805,0.63012 -0.10855,0.46221 -0.12268,0.46262 -0.31751,0.009 z m 36.17407,-24.15345 c -0.2247,-0.59136 -0.20698,-0.63982 0.23396,-0.63982 0.21614,0 0.39298,-0.19844 0.39298,-0.44097 0,-0.5942 0.34113,-0.21808 0.44888,0.4949 0.12985,0.85932 -0.78302,1.35647 -1.07582,0.58589 z"
       id="path1"
       inkscape:export-filename="../../half-oak-tree.svg"
       inkscape:export-xdpi="96"
       inkscape:export-ydpi="96" /></g></svg>
